<?xml version="1.0" encoding="UTF-8" standalone="no"?>
<!DOCTYPE svg PUBLIC "-//W3C//DTD SVG 1.1//EN" "http://www.w3.org/Graphics/SVG/1.1/DTD/svg11.dtd">
<svg width="100%" height="100%" viewBox="0 0 288 288" version="1.1" xmlns="http://www.w3.org/2000/svg" xmlns:xlink="http://www.w3.org/1999/xlink" xml:space="preserve" xmlns:serif="http://www.serif.com/" style="fill-rule:evenodd;clip-rule:evenodd;stroke-linejoin:round;stroke-miterlimit:2;">
    <g transform="matrix(1,0,0,1,-516.158,-1077.94)">
        <path d="M803.258,1092.52L803.258,1350.46C803.258,1358.51 796.728,1365.04 788.674,1365.04L530.741,1365.04C522.687,1365.04 516.158,1358.51 516.158,1350.46L516.158,1092.52C516.158,1084.47 522.687,1077.94 530.741,1077.94L788.674,1077.94C796.728,1077.94 803.258,1084.47 803.258,1092.52ZM564.615,1107.11C552.623,1107.11 545.324,1107.11 545.324,1107.11C545.324,1107.11 545.324,1166.7 545.324,1225.06C549.062,1239.57 563.691,1280.51 609.758,1280.51C653.702,1280.51 682.467,1242.62 682.467,1242.62C687.364,1236.24 696.525,1235.03 702.913,1239.92C709.301,1244.82 710.511,1253.98 705.613,1260.37C705.613,1260.37 667.534,1309.67 609.758,1309.67C580.174,1309.67 559.556,1297.97 545.324,1283.25C545.324,1313.74 545.324,1335.87 545.324,1335.87C545.324,1335.87 582.069,1335.87 626.106,1335.87C640.3,1331.38 656.078,1325.38 671.016,1317.57C696.801,1304.08 721.223,1285.51 725.844,1258.04C727.846,1246.14 726.034,1216.89 693.103,1216.89C664.635,1216.89 663.338,1250.99 624.514,1250.99C579.533,1250.99 561.835,1217 559.356,1174.09C558.091,1152.19 560.867,1128.06 564.615,1107.11ZM625.119,1107.11C614.175,1107.11 603.697,1107.11 594.14,1107.11C592.539,1115.45 591.074,1124.43 589.999,1133.64C600.065,1123.41 612.137,1114.59 625.119,1107.11ZM774.091,1159.82L774.091,1107.11C774.091,1107.11 742.217,1107.11 702.265,1107.11C685.579,1111.81 665.317,1118.79 646.402,1128.69C620.617,1142.18 593.795,1160.45 591.574,1188.22C590.186,1205.58 603.926,1221.82 624.514,1221.82C654.609,1221.82 658.668,1187.72 693.103,1187.72C727.538,1187.72 745.873,1209.71 753.314,1241.97C759.632,1269.36 757.245,1304.93 752.681,1335.87C765.926,1335.87 774.091,1335.87 774.091,1335.87L774.091,1220.11C771.7,1209.16 758.503,1161.87 708.993,1161.87C665.049,1161.87 637.284,1198.76 637.284,1198.76C632.387,1205.15 623.226,1206.36 616.838,1201.46C610.45,1196.56 609.24,1187.4 614.138,1181.01C614.138,1181.01 651.217,1132.71 708.993,1132.71C739.041,1132.71 759.839,1144.78 774.091,1159.82ZM697.781,1335.87C706.78,1335.87 715.423,1335.87 723.452,1335.87C724.582,1328.7 725.594,1321.23 726.386,1313.66C717.983,1322 708.244,1329.39 697.781,1335.87Z" style="fill:rgb(255,0,0);"/>
    </g>
</svg>
