<?xml version="1.0" encoding="UTF-8" standalone="no"?>
<!DOCTYPE svg PUBLIC "-//W3C//DTD SVG 1.1//EN" "http://www.w3.org/Graphics/SVG/1.1/DTD/svg11.dtd">
<svg width="100%" height="100%" viewBox="0 0 589 658" version="1.1" xmlns="http://www.w3.org/2000/svg" xmlns:xlink="http://www.w3.org/1999/xlink" xml:space="preserve" xmlns:serif="http://www.serif.com/" style="fill-rule:evenodd;clip-rule:evenodd;stroke-linejoin:round;stroke-miterlimit:2;">
    <g transform="matrix(1,0,0,1,-897.088,-1378.62)">
        <g transform="matrix(1,0,0,1,-7,0)">
            <circle cx="1042.55" cy="1905.33" r="48.012" style="fill:rgb(251,164,44);"/>
        </g>
        <g transform="matrix(1,0,0,1,151.045,-141.232)">
            <circle cx="1042.55" cy="1905.33" r="48.012" style="fill:rgb(251,164,44);"/>
        </g>
        <g transform="matrix(1,0,0,1,307.875,-301.792)">
            <circle cx="1042.55" cy="1905.33" r="48.012" style="fill:rgb(251,164,44);"/>
        </g>
        <path d="M1014.44,1994.31L1014.44,2036.13L897.088,2036.13L897.088,1675.68L1014.44,1616.43L1014.44,1816.36C974.143,1825.9 944.12,1862.14 944.12,1905.33C944.12,1948.53 974.143,1984.77 1014.44,1994.31ZM1055.98,1816.21L1055.98,1595.46L1173.38,1536.2L1173.38,1674.92C1132.63,1684.13 1102.17,1720.59 1102.17,1764.1C1102.17,1807.62 1132.63,1844.07 1173.38,1853.28L1173.38,2036.13L1055.98,2036.13L1055.98,1994.46C1096.62,1985.17 1126.97,1948.77 1126.97,1905.33C1126.97,1861.9 1096.62,1825.5 1055.98,1816.21ZM1214.92,1675.18L1214.92,1515.23L1329.48,1457.4L1329.48,1514.53C1289.1,1524.01 1259,1560.29 1259,1603.54C1259,1646.8 1289.1,1683.07 1329.48,1692.55L1329.48,2036.13L1214.92,2036.13L1214.92,1853.02C1255.11,1843.4 1285.01,1807.22 1285.01,1764.1C1285.01,1720.99 1255.11,1684.8 1214.92,1675.18ZM1371.02,1514.45L1371.02,1436.43L1485.54,1378.62L1485.54,2036.13L1371.02,2036.13L1371.02,1692.63C1411.57,1683.28 1441.84,1646.92 1441.84,1603.54C1441.84,1560.17 1411.57,1523.81 1371.02,1514.45Z" style="fill:rgb(141,180,188);"/>
    </g>
</svg>
