<?xml version="1.0" encoding="UTF-8" standalone="no"?>
<!DOCTYPE svg PUBLIC "-//W3C//DTD SVG 1.1//EN" "http://www.w3.org/Graphics/SVG/1.1/DTD/svg11.dtd">
<svg width="100%" height="100%" viewBox="0 0 1100 288" version="1.1" xmlns="http://www.w3.org/2000/svg" xmlns:xlink="http://www.w3.org/1999/xlink" xml:space="preserve" xmlns:serif="http://www.serif.com/" style="fill-rule:evenodd;clip-rule:evenodd;stroke-linejoin:round;stroke-miterlimit:2;">
    <g transform="matrix(1,0,0,1,-516.158,-1077.94)">
        <path d="M803.258,1092.52L803.258,1350.46C803.258,1358.51 796.728,1365.04 788.674,1365.04L530.741,1365.04C522.687,1365.04 516.158,1358.51 516.158,1350.46L516.158,1092.52C516.158,1084.47 522.687,1077.94 530.741,1077.94L788.674,1077.94C796.728,1077.94 803.258,1084.47 803.258,1092.52ZM564.615,1107.11C552.623,1107.11 545.324,1107.11 545.324,1107.11C545.324,1107.11 545.324,1166.7 545.324,1225.06C549.062,1239.57 563.691,1280.51 609.758,1280.51C653.702,1280.51 682.467,1242.62 682.467,1242.62C687.364,1236.24 696.525,1235.03 702.913,1239.92C709.301,1244.82 710.511,1253.98 705.613,1260.37C705.613,1260.37 667.534,1309.67 609.758,1309.67C580.174,1309.67 559.556,1297.97 545.324,1283.25C545.324,1313.74 545.324,1335.87 545.324,1335.87C545.324,1335.87 582.069,1335.87 626.106,1335.87C640.3,1331.38 656.078,1325.38 671.016,1317.57C696.801,1304.08 721.223,1285.51 725.844,1258.04C727.846,1246.14 726.034,1216.89 693.103,1216.89C664.635,1216.89 663.338,1250.99 624.514,1250.99C579.533,1250.99 561.835,1217 559.356,1174.09C558.091,1152.19 560.867,1128.06 564.615,1107.11ZM625.119,1107.11C614.175,1107.11 603.697,1107.11 594.14,1107.11C592.539,1115.45 591.074,1124.43 589.999,1133.64C600.065,1123.41 612.137,1114.59 625.119,1107.11ZM774.091,1159.82L774.091,1107.11C774.091,1107.11 742.217,1107.11 702.265,1107.11C685.579,1111.81 665.317,1118.79 646.402,1128.69C620.617,1142.18 593.795,1160.45 591.574,1188.22C590.186,1205.58 603.926,1221.82 624.514,1221.82C654.609,1221.82 658.668,1187.72 693.103,1187.72C727.538,1187.72 745.873,1209.71 753.314,1241.97C759.632,1269.36 757.245,1304.93 752.681,1335.87C765.926,1335.87 774.091,1335.87 774.091,1335.87L774.091,1220.11C771.7,1209.16 758.503,1161.87 708.993,1161.87C665.049,1161.87 637.284,1198.76 637.284,1198.76C632.387,1205.15 623.226,1206.36 616.838,1201.46C610.45,1196.56 609.24,1187.4 614.138,1181.01C614.138,1181.01 651.217,1132.71 708.993,1132.71C739.041,1132.71 759.839,1144.78 774.091,1159.82ZM697.781,1335.87C706.78,1335.87 715.423,1335.87 723.452,1335.87C724.582,1328.7 725.594,1321.23 726.386,1313.66C717.983,1322 708.244,1329.39 697.781,1335.87Z" style="fill:rgb(255,0,0);"/>
        <g>
            <path d="M845.396,1262.28C845.396,1258.75 846.965,1255.72 850.103,1253.18C853.241,1250.65 857.046,1249.38 861.517,1249.38C865.988,1249.38 869.792,1250.65 872.931,1253.18C876.069,1255.72 877.638,1258.75 877.638,1262.28C877.638,1275.17 884.086,1281.62 896.983,1281.62C909.88,1281.62 916.329,1275.17 916.329,1262.28C916.329,1253.68 904.507,1240.78 880.862,1223.59C857.218,1206.39 845.396,1189.19 845.396,1172C845.396,1141.91 862.592,1126.86 896.983,1126.86C931.375,1126.86 948.571,1141.91 948.571,1172C948.571,1175.52 947.002,1178.56 943.864,1181.09C940.725,1183.63 936.921,1184.9 932.45,1184.9C927.979,1184.9 924.174,1183.63 921.036,1181.09C917.898,1178.56 916.329,1175.52 916.329,1172C916.329,1159.1 909.88,1152.65 896.983,1152.65C884.086,1152.65 877.638,1159.1 877.638,1172C877.638,1180.6 889.46,1193.49 913.104,1210.69C936.749,1227.89 948.571,1245.08 948.571,1262.28C948.571,1292.37 931.375,1307.42 896.983,1307.42C862.592,1307.42 845.396,1292.37 845.396,1262.28Z" style="fill-rule:nonzero;"/>
            <path d="M1013.06,1281.62C1025.95,1281.62 1032.4,1275.17 1032.4,1262.28L1032.4,1172C1032.4,1159.1 1025.95,1152.65 1013.06,1152.65C1000.16,1152.65 993.71,1159.1 993.71,1172L993.71,1262.28C993.71,1275.17 1000.16,1281.62 1013.06,1281.62ZM1064.64,1262.28C1064.64,1292.37 1047.45,1307.42 1013.06,1307.42C978.664,1307.42 961.468,1292.37 961.468,1262.28L961.468,1172C961.468,1141.91 978.664,1126.86 1013.06,1126.86C1047.45,1126.86 1064.64,1141.91 1064.64,1172L1064.64,1262.28Z" style="fill-rule:nonzero;"/>
            <path d="M1109.78,1281.62L1158.15,1281.62C1162.62,1281.62 1166.42,1282.89 1169.56,1285.43C1172.7,1287.96 1174.27,1291 1174.27,1294.52C1174.27,1298.05 1172.7,1301.08 1169.56,1303.61C1166.42,1306.15 1162.62,1307.42 1158.15,1307.42L1093.66,1307.42C1089.19,1307.42 1085.39,1306.15 1082.25,1303.61C1079.11,1301.08 1077.54,1298.05 1077.54,1294.52L1077.54,1139.76C1077.54,1136.23 1079.11,1133.2 1082.25,1130.66C1085.39,1128.13 1089.19,1126.86 1093.66,1126.86C1098.13,1126.86 1101.94,1128.13 1105.08,1130.66C1108.21,1133.2 1109.78,1136.23 1109.78,1139.76L1109.78,1281.62Z" style="fill-rule:nonzero;"/>
            <g transform="matrix(1,0,0,1,-17,0)">
                <path d="M1187.16,1139.76C1187.16,1136.23 1188.73,1133.2 1191.87,1130.66C1195.01,1128.13 1198.81,1126.86 1203.29,1126.86C1207.76,1126.86 1211.56,1128.13 1214.7,1130.66C1217.84,1133.2 1219.41,1136.23 1219.41,1139.76L1219.41,1236.48C1219.41,1249.38 1225.86,1262.71 1238.75,1276.46C1251.65,1262.71 1258.1,1249.38 1258.1,1236.48L1258.1,1139.76C1258.1,1136.23 1259.67,1133.2 1262.8,1130.66C1265.94,1128.13 1269.75,1126.86 1274.22,1126.86C1278.69,1126.86 1282.49,1128.13 1285.63,1130.66C1288.77,1133.2 1290.34,1136.23 1290.34,1139.76L1290.34,1236.48C1290.34,1266.58 1273.14,1290.22 1238.75,1307.42C1204.36,1290.22 1187.16,1266.58 1187.16,1236.48L1187.16,1139.76Z" style="fill-rule:nonzero;"/>
            </g>
            <g transform="matrix(1,0,0,1,-16,0)">
                <path d="M1354.82,1126.86C1389.22,1126.86 1406.41,1141.91 1406.41,1172L1406.41,1184.9C1406.41,1198.91 1402.67,1209.66 1395.19,1217.14C1402.67,1224.62 1406.41,1235.37 1406.41,1249.38L1406.41,1294.52C1406.41,1298.05 1404.84,1301.08 1401.7,1303.61C1398.57,1306.15 1394.76,1307.42 1390.29,1307.42C1385.82,1307.42 1382.02,1306.15 1378.88,1303.61C1375.74,1301.08 1374.17,1298.05 1374.17,1294.52L1374.17,1249.38C1374.17,1236.48 1367.72,1230.04 1354.82,1230.04L1335.48,1230.04L1335.48,1294.52C1335.48,1298.05 1333.91,1301.08 1330.77,1303.61C1327.63,1306.15 1323.83,1307.42 1319.36,1307.42C1314.89,1307.42 1311.08,1306.15 1307.94,1303.61C1304.81,1301.08 1303.24,1298.05 1303.24,1294.52L1303.24,1139.76C1303.24,1136.23 1304.81,1133.2 1307.94,1130.66C1311.08,1128.13 1314.89,1126.86 1319.36,1126.86L1354.82,1126.86ZM1374.17,1172C1374.17,1159.1 1367.72,1152.65 1354.82,1152.65L1335.48,1152.65L1335.48,1204.24L1354.82,1204.24C1367.72,1204.24 1374.17,1197.79 1374.17,1184.9L1374.17,1172Z" style="fill-rule:nonzero;"/>
            </g>
            <g transform="matrix(1,0,0,1,-16,0)">
                <path d="M1419.31,1139.76C1419.31,1136.23 1420.88,1133.2 1424.02,1130.66C1427.15,1128.13 1430.96,1126.86 1435.43,1126.86L1499.91,1126.86C1504.38,1126.86 1508.19,1128.13 1511.33,1130.66C1514.47,1133.2 1516.04,1136.23 1516.04,1139.76C1516.04,1143.28 1514.47,1146.31 1511.33,1148.85C1508.19,1151.39 1504.38,1152.65 1499.91,1152.65L1451.55,1152.65L1451.55,1204.24L1480.57,1204.24C1485.04,1204.24 1488.84,1205.51 1491.98,1208.05C1495.12,1210.58 1496.69,1213.61 1496.69,1217.14C1496.69,1220.66 1495.12,1223.69 1491.98,1226.23C1488.84,1228.77 1485.04,1230.04 1480.57,1230.04L1451.55,1230.04L1451.55,1281.62L1499.91,1281.62C1504.38,1281.62 1508.19,1282.89 1511.33,1285.43C1514.47,1287.96 1516.04,1291 1516.04,1294.52C1516.04,1298.05 1514.47,1301.08 1511.33,1303.61C1508.19,1306.15 1504.38,1307.42 1499.91,1307.42L1435.43,1307.42C1430.96,1307.42 1427.15,1306.15 1424.02,1303.61C1420.88,1301.08 1419.31,1298.05 1419.31,1294.52L1419.31,1139.76Z" style="fill-rule:nonzero;"/>
            </g>
            <g transform="matrix(1,0,0,1,-16,0)">
                <path d="M1561.17,1294.52C1561.17,1298.05 1559.61,1301.08 1556.47,1303.61C1553.33,1306.15 1549.52,1307.42 1545.05,1307.42C1540.58,1307.42 1536.78,1306.15 1533.64,1303.61C1530.5,1301.08 1528.93,1298.05 1528.93,1294.52L1528.93,1139.76C1528.93,1136.23 1530.5,1133.2 1533.64,1130.66C1536.78,1128.13 1540.58,1126.86 1545.05,1126.86C1549.52,1126.86 1553.35,1128.11 1556.53,1130.6C1557.99,1131.8 1559.11,1133.14 1559.88,1134.6L1599.87,1174.58L1599.87,1139.76C1599.87,1136.23 1601.43,1133.2 1604.57,1130.66C1607.71,1128.13 1611.52,1126.86 1615.99,1126.86C1620.46,1126.86 1624.26,1128.13 1627.4,1130.66C1630.54,1133.2 1632.11,1136.23 1632.11,1139.76L1632.11,1294.52C1632.11,1298.05 1630.54,1301.08 1627.4,1303.61C1624.26,1306.15 1620.46,1307.42 1615.99,1307.42C1611.52,1307.42 1607.71,1306.15 1604.57,1303.61C1601.43,1301.08 1599.87,1298.05 1599.87,1294.52L1599.87,1219.72L1561.17,1181.03L1561.17,1294.52Z" style="fill-rule:nonzero;"/>
            </g>
        </g>
    </g>
</svg>
