<?xml version="1.0" encoding="UTF-8" standalone="no"?>
<!DOCTYPE svg PUBLIC "-//W3C//DTD SVG 1.1//EN" "http://www.w3.org/Graphics/SVG/1.1/DTD/svg11.dtd">
<svg width="100%" height="100%" viewBox="0 0 818 968" version="1.1" xmlns="http://www.w3.org/2000/svg" xmlns:xlink="http://www.w3.org/1999/xlink" xml:space="preserve" xmlns:serif="http://www.serif.com/" style="fill-rule:evenodd;clip-rule:evenodd;stroke-linejoin:round;stroke-miterlimit:2;">
    <g transform="matrix(1,0,0,1,-844.928,-634.702)">
        <g transform="matrix(1,0,0,1,-93.3124,-425.911)">
            <path d="M1691.97,1546.63C1700.27,1577.98 1704.7,1610.89 1704.7,1644.84C1704.7,1856.35 1532.98,2028.07 1321.47,2028.07C1109.96,2028.07 938.24,1856.35 938.24,1644.84C938.24,1438.09 1102.31,1269.37 1307.23,1261.87C1316.89,1221.74 1353.05,1191.88 1396.13,1191.88C1409.03,1191.88 1421.3,1194.56 1432.44,1199.38L1455.16,1174.76C1447.51,1163.14 1443.06,1149.24 1443.06,1134.3C1443.06,1093.63 1476.08,1060.61 1516.75,1060.61C1557.42,1060.61 1590.44,1093.63 1590.44,1134.3C1590.44,1174.98 1557.42,1208 1516.75,1208C1506.11,1208 1496,1205.74 1486.86,1201.67L1465.96,1224.31C1472.46,1232 1477.72,1240.77 1481.42,1250.32L1624.03,1202.48C1625.27,1167.3 1654.22,1139.12 1689.7,1139.12C1725.97,1139.12 1755.41,1168.57 1755.41,1204.83C1755.41,1241.1 1725.97,1270.54 1689.7,1270.54C1667.38,1270.54 1647.65,1259.39 1635.77,1242.36L1487.13,1292.22C1486.91,1294.44 1486.62,1296.63 1486.25,1298.8C1495.5,1303.22 1504.55,1308 1513.38,1313.12C1525.11,1301.07 1541.5,1293.58 1559.62,1293.58C1595.23,1293.58 1624.14,1322.49 1624.14,1358.11C1624.14,1393.72 1595.23,1422.63 1559.62,1422.63C1524.01,1422.63 1495.09,1393.72 1495.09,1358.11C1495.09,1355.63 1495.23,1353.19 1495.5,1350.79C1487.24,1345.88 1478.74,1341.31 1470.05,1337.1C1453.41,1359.91 1426.49,1374.74 1396.13,1374.74C1352.59,1374.74 1316.11,1344.24 1306.93,1303.45C1227.25,1306.79 1154.58,1337.48 1098.09,1386.36C1090.84,1418.24 1082.32,1477.86 1097.27,1546.36C1124.5,1487.39 1161.34,1441.8 1178.83,1421.89C1176.86,1415.96 1175.8,1409.63 1175.8,1403.04C1175.8,1370.04 1202.59,1343.25 1235.59,1343.25C1268.6,1343.25 1295.39,1370.04 1295.39,1403.04C1295.39,1436.05 1268.6,1462.84 1235.59,1462.84C1224.58,1462.84 1214.26,1459.85 1205.39,1454.65C1187.19,1476.03 1153.83,1519.36 1130.52,1573.82C1125.65,1585.19 1121.23,1597.06 1117.49,1609.32C1134.84,1649.55 1161.79,1690.8 1202.63,1729.78C1205.25,1732.28 1207.9,1734.7 1210.57,1737.04C1236.53,1701.99 1255.45,1654.81 1258.27,1591.34C1233.79,1583.63 1216.01,1560.74 1216.01,1533.72C1216.01,1500.39 1243.06,1473.33 1276.39,1473.33C1309.72,1473.33 1336.78,1500.39 1336.78,1533.72C1336.78,1558.69 1321.59,1580.14 1299.95,1589.33C1297.48,1664.89 1275.47,1720.82 1244.91,1762.19C1264.23,1773.89 1284.31,1782.35 1304.47,1788.3C1350.91,1743.48 1387.85,1678.41 1395.98,1583.93C1370.11,1572.67 1352,1546.86 1352,1516.87C1352,1476.52 1384.76,1443.77 1425.1,1443.77C1465.45,1443.77 1498.2,1476.52 1498.2,1516.87C1498.2,1553.07 1471.82,1583.16 1437.25,1588.96C1429.07,1681.65 1396.17,1749.07 1353.1,1798.12C1412.71,1805.11 1468.26,1794.52 1501.72,1785.51C1501.25,1782.56 1501.01,1779.53 1501.01,1776.44C1501.01,1744.91 1526.61,1719.31 1558.14,1719.31C1589.67,1719.31 1615.28,1744.91 1615.28,1776.44C1615.28,1807.97 1589.67,1833.58 1558.14,1833.58C1545.27,1833.58 1533.38,1829.31 1523.83,1822.12C1483.65,1833.6 1401.71,1850.99 1316.87,1833.47C1287.5,1858.07 1255.71,1876.34 1224.94,1889.89C1334.85,1966.79 1453.18,1947.25 1505.76,1932.55C1600.4,1871.76 1663.16,1765.57 1663.16,1644.84C1663.16,1616.29 1659.65,1588.56 1653.05,1562.05C1651.67,1562.13 1650.29,1562.17 1648.9,1562.17C1611.66,1562.17 1581.42,1531.94 1581.42,1494.69C1581.42,1457.45 1611.66,1427.21 1648.9,1427.21C1686.15,1427.21 1716.39,1457.45 1716.39,1494.69C1716.39,1515.57 1706.88,1534.25 1691.97,1546.63ZM1048.56,1439.31C1005.39,1496.52 979.782,1567.71 979.782,1644.84C979.782,1715.55 1001.31,1781.27 1038.16,1835.81C1052.05,1833.59 1074.7,1828.8 1100.32,1818.77C1057.82,1748.48 1056.88,1676.09 1073.55,1611.95C1048.8,1547.76 1045.22,1486.62 1048.56,1439.31ZM1066.76,1872.49C1070.93,1877.16 1075.22,1881.7 1079.64,1886.13C1093.65,1884.71 1116.49,1881.53 1143.68,1874.46C1140.78,1871.43 1137.9,1868.33 1135.03,1865.15C1131.6,1861.36 1128.32,1857.55 1125.17,1853.72C1103.51,1862.83 1083.23,1868.71 1066.76,1872.49ZM1121.39,1921.77C1177.64,1962.5 1246.77,1986.52 1321.47,1986.52C1333.84,1986.52 1346.05,1985.87 1358.09,1984.58C1301.3,1977.38 1238.41,1955.95 1178.98,1907.22C1157.83,1913.94 1138.18,1918.58 1121.39,1921.77ZM1182.84,1767.97C1179.85,1765.34 1176.88,1762.63 1173.95,1759.83C1145.49,1732.66 1123.08,1704.51 1105.56,1676.25C1103.76,1716.72 1112.29,1759.19 1138.12,1800.7C1153.3,1791.98 1168.54,1781.23 1182.84,1767.97ZM1267.18,1818.93C1250.26,1812.38 1233.53,1804.12 1217.3,1793.8C1200.24,1810.41 1181.84,1823.8 1163.45,1834.6C1164.25,1835.51 1165.05,1836.42 1165.87,1837.32C1173.27,1845.52 1180.78,1853.14 1188.37,1860.22C1214.08,1850.42 1241.24,1837.08 1267.18,1818.93ZM1648.9,1468.75C1634.59,1468.75 1622.96,1480.38 1622.96,1494.69C1622.96,1509.01 1634.59,1520.63 1648.9,1520.63C1663.22,1520.63 1674.84,1509.01 1674.84,1494.69C1674.84,1480.38 1663.22,1468.75 1648.9,1468.75ZM1516.75,1102.15C1499.01,1102.15 1484.6,1116.56 1484.6,1134.3C1484.6,1152.05 1499.01,1166.45 1516.75,1166.45C1534.49,1166.45 1548.9,1152.05 1548.9,1134.3C1548.9,1116.56 1534.49,1102.15 1516.75,1102.15ZM1235.59,1384.79C1225.52,1384.79 1217.34,1392.97 1217.34,1403.04C1217.34,1413.12 1225.52,1421.3 1235.59,1421.3C1245.67,1421.3 1253.85,1413.12 1253.85,1403.04C1253.85,1392.97 1245.67,1384.79 1235.59,1384.79ZM1559.62,1335.12C1546.93,1335.12 1536.63,1345.42 1536.63,1358.11C1536.63,1370.79 1546.93,1381.09 1559.62,1381.09C1572.3,1381.09 1582.6,1370.79 1582.6,1358.11C1582.6,1345.42 1572.3,1335.12 1559.62,1335.12ZM1689.7,1180.66C1676.36,1180.66 1665.54,1191.49 1665.54,1204.83C1665.54,1218.17 1676.36,1229 1689.7,1229C1703.04,1229 1713.87,1218.17 1713.87,1204.83C1713.87,1191.49 1703.04,1180.66 1689.7,1180.66ZM1396.13,1233.42C1368.59,1233.42 1346.24,1255.77 1346.24,1283.31C1346.24,1310.84 1368.59,1333.2 1396.13,1333.2C1423.66,1333.2 1446.02,1310.84 1446.02,1283.31C1446.02,1255.77 1423.66,1233.42 1396.13,1233.42ZM1558.14,1760.85C1549.53,1760.85 1542.55,1767.83 1542.55,1776.44C1542.55,1785.05 1549.53,1792.03 1558.14,1792.03C1566.75,1792.03 1573.73,1785.05 1573.73,1776.44C1573.73,1767.83 1566.75,1760.85 1558.14,1760.85ZM1276.39,1514.87C1265.99,1514.87 1257.55,1523.32 1257.55,1533.72C1257.55,1544.12 1265.99,1552.56 1276.39,1552.56C1286.79,1552.56 1295.24,1544.12 1295.24,1533.72C1295.24,1523.32 1286.79,1514.87 1276.39,1514.87ZM1425.1,1485.31C1407.68,1485.31 1393.54,1499.45 1393.54,1516.87C1393.54,1534.28 1407.68,1548.42 1425.1,1548.42C1442.52,1548.42 1456.66,1534.28 1456.66,1516.87C1456.66,1499.45 1442.52,1485.31 1425.1,1485.31Z" style="fill:url(#_Linear1);"/>
        </g>
    </g>
    <defs>
        <linearGradient id="_Linear1" x1="0" y1="0" x2="1" y2="0" gradientUnits="userSpaceOnUse" gradientTransform="matrix(750.656,880,-880,750.656,907.38,1082.53)"><stop offset="0" style="stop-color:rgb(0,194,243);stop-opacity:1"/><stop offset="1" style="stop-color:rgb(65,99,247);stop-opacity:1"/></linearGradient>
    </defs>
</svg>
